<svg id="svg" xmlns="http://www.w3.org/2000/svg" xmlns:xlink="http://www.w3.org/1999/xlink" width="400" height="100" viewBox="0, 0, 400,100"><g id="svgg"><path id="path0" d="M167.233 23.823 C 153.477 25.666,145.529 35.336,145.059 50.801 C 144.802 59.270,146.391 65.331,150.296 70.765 C 151.834 72.906,151.931 72.560,149.358 74.097 C 148.038 74.885,146.532 75.631,143.468 77.015 L 142.835 77.300 144.833 81.100 C 145.932 83.190,146.905 84.976,146.994 85.069 C 147.474 85.565,151.410 83.579,155.991 80.530 L 159.282 78.339 161.191 78.976 C 176.723 84.156,192.417 77.451,196.735 63.790 L 197.300 62.001 201.026 62.000 L 204.753 62.000 205.288 63.717 C 207.001 69.211,210.786 74.127,215.553 77.048 C 222.116 81.070,232.962 81.990,240.874 79.198 C 241.806 78.869,242.651 78.600,242.752 78.600 C 242.853 78.600,244.499 79.643,246.408 80.917 C 250.428 83.599,252.190 84.524,254.731 85.286 C 255.121 85.403,255.353 85.047,257.192 81.506 C 259.374 77.303,259.363 77.350,258.247 76.984 C 256.248 76.329,250.600 73.239,250.600 72.800 C 250.600 72.702,251.044 72.034,251.588 71.316 C 255.115 66.656,256.800 61.415,257.124 54.100 C 257.924 36.015,248.282 24.454,231.900 23.858 C 219.413 23.403,209.643 29.187,205.899 39.250 L 205.546 40.200 201.088 40.200 L 196.631 40.200 196.388 39.450 C 192.893 28.684,180.506 22.044,167.233 23.823 M22.403 41.350 C 22.408 66.523,22.713 69.058,26.312 73.800 C 30.217 78.946,36.233 81.033,46.300 80.733 C 58.175 80.381,64.440 75.534,65.931 65.548 C 66.222 63.597,66.276 60.757,66.346 44.050 L 66.425 24.800 60.813 24.800 L 55.200 24.800 55.199 41.250 C 55.198 62.015,55.038 64.834,53.733 67.062 C 50.392 72.763,38.690 72.502,35.260 66.650 C 33.833 64.215,33.911 65.452,33.844 44.050 L 33.783 24.800 28.092 24.800 L 22.400 24.800 22.403 41.350 M124.800 29.700 L 124.800 34.600 130.200 34.600 L 135.600 34.600 135.600 29.700 L 135.600 24.800 130.200 24.800 L 124.800 24.800 124.800 29.700 M312.600 29.700 L 312.600 34.600 317.900 34.600 L 323.200 34.600 323.200 29.700 L 323.200 24.800 317.900 24.800 L 312.600 24.800 312.600 29.700 M175.700 33.807 C 183.071 35.662,186.687 41.714,186.687 52.200 C 186.687 62.166,183.434 68.072,176.624 70.474 C 174.592 71.190,170.359 71.348,168.600 70.774 L 167.700 70.480 169.200 69.599 C 170.025 69.114,171.510 68.368,172.500 67.940 C 173.490 67.512,174.323 67.140,174.351 67.113 C 174.397 67.070,171.441 60.780,171.313 60.648 C 171.021 60.346,165.236 63.209,162.670 64.925 L 160.806 66.172 160.200 65.436 C 155.754 60.043,155.397 46.184,159.535 39.644 C 162.777 34.520,169.246 32.183,175.700 33.807 M234.162 33.929 C 237.667 34.657,241.147 37.228,242.939 40.410 C 246.830 47.321,246.219 60.499,241.759 65.851 L 241.300 66.401 240.000 65.489 C 237.939 64.042,235.317 62.608,233.021 61.672 L 230.900 60.807 229.361 63.854 C 227.692 67.156,227.626 67.354,228.150 67.531 C 229.034 67.829,231.447 68.975,232.900 69.787 L 234.500 70.681 233.600 70.953 C 224.975 73.554,216.804 67.037,215.589 56.587 C 213.763 40.884,221.605 31.317,234.162 33.929 M97.867 39.206 C 94.825 39.753,91.644 41.495,89.250 43.922 L 87.800 45.392 87.800 42.596 L 87.800 39.800 82.800 39.800 L 77.800 39.800 77.800 59.800 L 77.800 79.800 83.188 79.800 L 88.575 79.800 88.653 67.450 C 88.739 53.969,88.776 53.501,89.925 51.389 C 92.323 46.984,98.718 45.846,101.746 49.286 C 103.424 51.192,103.592 52.926,103.597 68.350 L 103.600 79.800 109.000 79.800 L 114.400 79.800 114.395 67.950 C 114.388 50.692,114.213 48.377,112.674 45.227 C 110.496 40.765,103.962 38.109,97.867 39.206 M331.445 43.050 L 331.500 46.700 341.432 46.700 C 348.831 46.700,351.330 46.758,351.232 46.929 C 351.159 47.055,350.560 47.771,349.900 48.520 C 348.409 50.214,347.394 51.379,346.076 52.910 C 345.016 54.142,333.994 66.852,330.681 70.664 L 328.800 72.828 328.800 76.614 L 328.800 80.400 346.800 80.400 L 364.800 80.400 364.800 76.802 L 364.800 73.203 352.504 73.152 L 340.208 73.100 343.354 69.487 C 345.084 67.499,347.850 64.316,349.500 62.411 C 351.150 60.507,352.592 58.848,352.705 58.725 C 352.818 58.601,354.663 56.478,356.805 54.006 C 358.947 51.534,361.398 48.708,362.250 47.727 L 363.800 45.942 363.800 42.671 L 363.800 39.400 347.595 39.400 L 331.391 39.400 331.445 43.050 M124.800 59.900 L 124.800 80.007 130.150 79.953 L 135.500 79.900 135.500 59.900 L 135.500 39.900 130.150 39.847 L 124.800 39.793 124.800 59.900 M265.400 53.652 C 265.400 70.083,265.494 71.231,267.101 74.524 C 270.995 82.501,285.175 82.819,291.098 75.062 L 291.800 74.142 291.800 76.971 L 291.800 79.800 296.800 79.800 L 301.800 79.800 301.800 59.797 L 301.800 39.793 296.450 39.847 L 291.100 39.900 290.987 52.400 C 290.850 67.518,290.810 67.800,288.508 70.112 C 284.994 73.639,278.906 73.277,277.082 69.433 C 276.368 67.928,276.333 67.290,276.216 53.600 L 276.100 39.900 270.750 39.847 L 265.400 39.793 265.400 53.652 M312.600 59.900 L 312.600 80.000 317.900 80.000 L 323.200 80.000 323.200 59.900 L 323.200 39.800 317.900 39.800 L 312.600 39.800 312.600 59.900 " stroke="none" fill="#000000" fill-rule="evenodd"></path></g></svg>