<svg id="svg" xmlns="http://www.w3.org/2000/svg" xmlns:xlink="http://www.w3.org/1999/xlink" width="400" height="237.71043771043773" viewBox="0, 0, 400,237.71043771043773"><g id="svgg"><path id="path0" d="M84.286 10.178 C 37.968 16.385,11.209 48.942,9.626 101.015 C 8.759 129.530,14.112 149.936,27.258 168.232 C 32.437 175.441,32.765 174.276,24.100 179.451 C 19.656 182.105,14.586 184.616,4.268 189.275 L 2.139 190.236 8.866 203.030 C 12.566 210.067,15.840 216.080,16.142 216.393 C 17.757 218.063,31.012 211.377,46.434 201.111 L 57.515 193.735 63.943 195.879 C 116.238 213.321,169.082 190.744,183.618 144.748 L 185.522 138.723 198.069 138.722 L 210.616 138.721 212.418 144.500 C 218.186 163.001,230.930 179.552,246.980 189.387 C 269.076 202.928,305.596 206.029,332.235 196.626 C 335.372 195.519,338.218 194.613,338.559 194.613 C 338.900 194.613,344.440 198.123,350.870 202.414 C 364.404 211.446,370.337 214.560,378.892 217.124 C 380.207 217.518,380.986 216.320,387.178 204.397 C 394.527 190.246,394.490 190.405,390.731 189.173 C 384.001 186.966,364.983 176.561,364.983 175.085 C 364.983 174.754,366.480 172.505,368.309 170.088 C 380.185 154.397,385.859 136.751,386.949 112.121 C 389.642 51.229,357.177 12.304,302.020 10.296 C 259.976 8.765,227.081 28.238,214.475 62.121 L 213.285 65.320 198.277 65.320 L 183.269 65.320 182.450 62.795 C 170.685 26.544,128.977 4.188,84.286 10.178 M112.795 43.795 C 137.614 50.039,149.787 70.418,149.787 105.724 C 149.787 139.278,138.834 159.166,115.904 167.251 C 109.065 169.662,94.810 170.195,88.889 168.261 L 85.859 167.271 90.909 164.305 C 93.687 162.673,98.687 160.160,102.020 158.720 C 105.354 157.280,108.159 156.027,108.254 155.936 C 108.407 155.790,98.453 134.613,98.022 134.167 C 97.041 133.152,77.563 142.793,68.921 148.570 L 62.645 152.766 60.605 150.291 C 45.638 132.133,44.434 85.469,58.365 63.448 C 69.282 46.194,91.065 38.328,112.795 43.795 M309.638 44.204 C 321.437 46.658,333.155 55.312,339.188 66.027 C 352.290 89.297,350.232 133.667,335.215 151.686 L 333.670 153.540 329.293 150.467 C 322.355 145.597,313.525 140.768,305.795 137.616 L 298.653 134.705 293.470 144.962 C 287.850 156.082,287.631 156.747,289.394 157.342 C 292.370 158.347,300.494 162.207,305.387 164.941 L 310.774 167.951 307.744 168.865 C 278.702 177.623,251.191 155.680,247.100 120.496 C 240.954 67.624,267.358 35.412,309.638 44.204 " stroke="none" fill="#6fffe9" fill-rule="evenodd"></path></g></svg>